<mxfile host="app.diagrams.net" agent="Mozilla/5.0 (Macintosh; Intel Mac OS X 10_15_7) AppleWebKit/537.36 (KHTML, like Gecko) Chrome/130.0.0.0 Safari/537.36" version="24.8.3">
  <diagram id="-GSWcyLh5VV6jiHi30Cx" name="페이지-1">
    <mxGraphModel dx="1304" dy="723" grid="1" gridSize="10" guides="1" tooltips="1" connect="1" arrows="1" fold="1" page="1" pageScale="1" pageWidth="827" pageHeight="1169" math="0" shadow="0">
      <root>
        <mxCell id="0" />
        <mxCell id="1" parent="0" />
        <mxCell id="VJtvqMew01t1XMJXiIaO-25" value="&lt;p style=&quot;margin:0px;margin-top:6px;text-align:center;&quot;&gt;&lt;b&gt;Front-end&lt;/b&gt;&lt;/p&gt;&lt;hr size=&quot;1&quot; style=&quot;border-style:solid;&quot;&gt;&lt;p style=&quot;margin:0px;margin-left:8px;&quot;&gt;&lt;br&gt;&lt;/p&gt;" style="align=left;overflow=fill;html=1;dropTarget=0;whiteSpace=wrap;" vertex="1" parent="1">
          <mxGeometry x="300" y="60" width="520" height="460" as="geometry" />
        </mxCell>
        <mxCell id="VJtvqMew01t1XMJXiIaO-26" value="" style="shape=component;jettyWidth=8;jettyHeight=4;" vertex="1" parent="VJtvqMew01t1XMJXiIaO-25">
          <mxGeometry x="1" width="20" height="20" relative="1" as="geometry">
            <mxPoint x="-24" y="4" as="offset" />
          </mxGeometry>
        </mxCell>
        <mxCell id="VJtvqMew01t1XMJXiIaO-15" value="메인 페이지" style="shape=module;align=left;spacingLeft=20;align=center;verticalAlign=top;whiteSpace=wrap;html=1;fontStyle=1" vertex="1" parent="1">
          <mxGeometry x="610" y="100" width="100" height="50" as="geometry" />
        </mxCell>
        <mxCell id="VJtvqMew01t1XMJXiIaO-16" value="로그인 페이지" style="shape=module;align=left;spacingLeft=20;align=center;verticalAlign=top;whiteSpace=wrap;html=1;fontStyle=1" vertex="1" parent="1">
          <mxGeometry x="610" y="373.5" width="100" height="50" as="geometry" />
        </mxCell>
        <mxCell id="VJtvqMew01t1XMJXiIaO-273" style="edgeStyle=orthogonalEdgeStyle;rounded=0;orthogonalLoop=1;jettySize=auto;html=1;entryX=1;entryY=0.25;entryDx=0;entryDy=0;curved=1;exitX=0.5;exitY=1;exitDx=0;exitDy=0;endArrow=none;endFill=0;startArrow=classic;startFill=1;dashed=1;" edge="1" parent="1" source="VJtvqMew01t1XMJXiIaO-17" target="VJtvqMew01t1XMJXiIaO-19">
          <mxGeometry relative="1" as="geometry" />
        </mxCell>
        <mxCell id="VJtvqMew01t1XMJXiIaO-17" value="관심 목록" style="shape=module;align=left;spacingLeft=20;align=center;verticalAlign=top;whiteSpace=wrap;html=1;fontStyle=1" vertex="1" parent="1">
          <mxGeometry x="423" y="215" width="100" height="50" as="geometry" />
        </mxCell>
        <mxCell id="VJtvqMew01t1XMJXiIaO-274" style="edgeStyle=orthogonalEdgeStyle;rounded=0;orthogonalLoop=1;jettySize=auto;html=1;entryX=1;entryY=0.75;entryDx=0;entryDy=0;curved=1;exitX=0.5;exitY=0;exitDx=0;exitDy=0;dashed=1;startArrow=classic;startFill=1;endArrow=none;endFill=0;" edge="1" parent="1" source="VJtvqMew01t1XMJXiIaO-18" target="VJtvqMew01t1XMJXiIaO-19">
          <mxGeometry relative="1" as="geometry" />
        </mxCell>
        <mxCell id="VJtvqMew01t1XMJXiIaO-18" value="방문 기록" style="shape=module;align=left;spacingLeft=20;align=center;verticalAlign=top;whiteSpace=wrap;html=1;fontStyle=1" vertex="1" parent="1">
          <mxGeometry x="423" y="365" width="100" height="50" as="geometry" />
        </mxCell>
        <mxCell id="VJtvqMew01t1XMJXiIaO-19" value="마이 페이지" style="shape=module;align=left;spacingLeft=20;align=center;verticalAlign=top;whiteSpace=wrap;html=1;fontStyle=1" vertex="1" parent="1">
          <mxGeometry x="313" y="287.5" width="100" height="50" as="geometry" />
        </mxCell>
        <mxCell id="VJtvqMew01t1XMJXiIaO-20" value="프로필 전환" style="shape=module;align=left;spacingLeft=20;align=center;verticalAlign=top;whiteSpace=wrap;html=1;fontStyle=1" vertex="1" parent="1">
          <mxGeometry x="423" y="448.5" width="100" height="50" as="geometry" />
        </mxCell>
        <mxCell id="VJtvqMew01t1XMJXiIaO-400" style="edgeStyle=orthogonalEdgeStyle;rounded=0;orthogonalLoop=1;jettySize=auto;html=1;curved=1;dashed=1;" edge="1" parent="1" source="VJtvqMew01t1XMJXiIaO-21" target="VJtvqMew01t1XMJXiIaO-22">
          <mxGeometry relative="1" as="geometry" />
        </mxCell>
        <mxCell id="VJtvqMew01t1XMJXiIaO-21" value="상세 정보 &lt;br&gt;페이지" style="shape=module;align=left;spacingLeft=20;align=center;verticalAlign=top;whiteSpace=wrap;html=1;fontStyle=1" vertex="1" parent="1">
          <mxGeometry x="610" y="220" width="100" height="50" as="geometry" />
        </mxCell>
        <mxCell id="VJtvqMew01t1XMJXiIaO-22" value="미디어&lt;br&gt;플레이어" style="shape=module;align=left;spacingLeft=20;align=center;verticalAlign=top;whiteSpace=wrap;html=1;fontStyle=1" vertex="1" parent="1">
          <mxGeometry x="610" y="313.5" width="100" height="50" as="geometry" />
        </mxCell>
        <mxCell id="VJtvqMew01t1XMJXiIaO-23" value="검색 페이지" style="shape=module;align=left;spacingLeft=20;align=center;verticalAlign=top;whiteSpace=wrap;html=1;fontStyle=1" vertex="1" parent="1">
          <mxGeometry x="610" y="160" width="100" height="50" as="geometry" />
        </mxCell>
        <mxCell id="VJtvqMew01t1XMJXiIaO-24" value="시스템 자원&lt;br&gt;페이지" style="shape=module;align=left;spacingLeft=20;align=center;verticalAlign=top;whiteSpace=wrap;html=1;fontStyle=1" vertex="1" parent="1">
          <mxGeometry x="313" y="376" width="100" height="50" as="geometry" />
        </mxCell>
        <mxCell id="VJtvqMew01t1XMJXiIaO-27" value="&lt;p style=&quot;margin:0px;margin-top:6px;text-align:center;&quot;&gt;&lt;b&gt;Back-end&lt;/b&gt;&lt;/p&gt;&lt;hr size=&quot;1&quot; style=&quot;border-style:solid;&quot;&gt;&lt;p style=&quot;margin:0px;margin-left:8px;&quot;&gt;&lt;br&gt;&lt;/p&gt;" style="align=left;overflow=fill;html=1;dropTarget=0;whiteSpace=wrap;" vertex="1" parent="1">
          <mxGeometry x="900" y="60" width="410" height="400" as="geometry" />
        </mxCell>
        <mxCell id="VJtvqMew01t1XMJXiIaO-29" value="추천 엔진" style="shape=module;align=left;spacingLeft=20;align=center;verticalAlign=top;whiteSpace=wrap;html=1;fontStyle=1" vertex="1" parent="1">
          <mxGeometry x="990" y="110" width="100" height="50" as="geometry" />
        </mxCell>
        <mxCell id="VJtvqMew01t1XMJXiIaO-30" value="로그인 / 인증" style="shape=module;align=left;spacingLeft=20;align=center;verticalAlign=top;whiteSpace=wrap;html=1;fontStyle=1" vertex="1" parent="1">
          <mxGeometry x="1130" y="346" width="100" height="50" as="geometry" />
        </mxCell>
        <mxCell id="VJtvqMew01t1XMJXiIaO-38" value="사용자 데이터&lt;br&gt;서비스" style="shape=module;align=left;spacingLeft=20;align=center;verticalAlign=top;whiteSpace=wrap;html=1;fontStyle=1" vertex="1" parent="1">
          <mxGeometry x="990" y="396" width="100" height="50" as="geometry" />
        </mxCell>
        <mxCell id="VJtvqMew01t1XMJXiIaO-40" value="미디어 서비스" style="shape=module;align=left;spacingLeft=20;align=center;verticalAlign=top;whiteSpace=wrap;html=1;fontStyle=1" vertex="1" parent="1">
          <mxGeometry x="1100" y="270" width="100" height="50" as="geometry" />
        </mxCell>
        <mxCell id="VJtvqMew01t1XMJXiIaO-45" value="레스토랑 데이터 서비스" style="shape=module;align=left;spacingLeft=20;align=center;verticalAlign=top;whiteSpace=wrap;html=1;fontStyle=1" vertex="1" parent="1">
          <mxGeometry x="1100" y="170" width="100" height="50" as="geometry" />
        </mxCell>
        <mxCell id="VJtvqMew01t1XMJXiIaO-126" style="edgeStyle=orthogonalEdgeStyle;rounded=0;orthogonalLoop=1;jettySize=auto;html=1;entryX=0;entryY=0;entryDx=0;entryDy=35;entryPerimeter=0;exitX=1;exitY=0.25;exitDx=0;exitDy=0;dashed=1;" edge="1" parent="1" source="VJtvqMew01t1XMJXiIaO-38" target="VJtvqMew01t1XMJXiIaO-30">
          <mxGeometry relative="1" as="geometry">
            <mxPoint x="980" y="506" as="sourcePoint" />
          </mxGeometry>
        </mxCell>
        <mxCell id="VJtvqMew01t1XMJXiIaO-192" value="&lt;span style=&quot;font-weight: normal;&quot;&gt;&amp;lt;&amp;lt;database&amp;gt;&amp;gt;&lt;/span&gt;&lt;br&gt;사용자 데이터" style="shape=module;align=left;spacingLeft=20;align=center;verticalAlign=top;whiteSpace=wrap;html=1;fontStyle=1" vertex="1" parent="1">
          <mxGeometry x="1391.5" y="391" width="100" height="50" as="geometry" />
        </mxCell>
        <mxCell id="VJtvqMew01t1XMJXiIaO-233" value="&lt;span style=&quot;font-weight: normal;&quot;&gt;&amp;lt;&amp;lt;database&amp;gt;&amp;gt;&lt;/span&gt;&lt;br&gt;레스토랑 데이터" style="shape=module;align=left;spacingLeft=20;align=center;verticalAlign=top;whiteSpace=wrap;html=1;fontStyle=1" vertex="1" parent="1">
          <mxGeometry x="1391.5" y="180" width="98.5" height="50" as="geometry" />
        </mxCell>
        <mxCell id="VJtvqMew01t1XMJXiIaO-234" value="&lt;span style=&quot;font-weight: normal;&quot;&gt;&amp;lt;&amp;lt;database&amp;gt;&amp;gt;&lt;/span&gt;&lt;br&gt;미디어 데이터" style="shape=module;align=left;spacingLeft=20;align=center;verticalAlign=top;whiteSpace=wrap;html=1;fontStyle=1" vertex="1" parent="1">
          <mxGeometry x="1391.5" y="280" width="100" height="50" as="geometry" />
        </mxCell>
        <mxCell id="VJtvqMew01t1XMJXiIaO-237" value="" style="shape=providedRequiredInterface;html=1;verticalLabelPosition=bottom;sketch=0;flipH=1;" vertex="1" parent="1">
          <mxGeometry x="1340" y="396" width="20" height="20" as="geometry" />
        </mxCell>
        <mxCell id="VJtvqMew01t1XMJXiIaO-239" style="edgeStyle=orthogonalEdgeStyle;rounded=0;orthogonalLoop=1;jettySize=auto;html=1;entryX=0;entryY=0;entryDx=0;entryDy=15;entryPerimeter=0;endArrow=none;endFill=0;" edge="1" parent="1" source="VJtvqMew01t1XMJXiIaO-237">
          <mxGeometry relative="1" as="geometry">
            <mxPoint x="1391.5" y="406" as="targetPoint" />
          </mxGeometry>
        </mxCell>
        <mxCell id="VJtvqMew01t1XMJXiIaO-240" value="" style="shape=providedRequiredInterface;html=1;verticalLabelPosition=bottom;sketch=0;flipH=1;" vertex="1" parent="1">
          <mxGeometry x="1340" y="285" width="20" height="20" as="geometry" />
        </mxCell>
        <mxCell id="VJtvqMew01t1XMJXiIaO-241" value="" style="shape=providedRequiredInterface;html=1;verticalLabelPosition=bottom;sketch=0;flipH=1;" vertex="1" parent="1">
          <mxGeometry x="1340" y="185" width="20" height="20" as="geometry" />
        </mxCell>
        <mxCell id="VJtvqMew01t1XMJXiIaO-242" style="edgeStyle=orthogonalEdgeStyle;rounded=0;orthogonalLoop=1;jettySize=auto;html=1;entryX=0;entryY=0;entryDx=0;entryDy=15;entryPerimeter=0;endArrow=none;endFill=0;" edge="1" parent="1" source="VJtvqMew01t1XMJXiIaO-240">
          <mxGeometry relative="1" as="geometry">
            <mxPoint x="1391.5" y="294.9999999999999" as="targetPoint" />
          </mxGeometry>
        </mxCell>
        <mxCell id="VJtvqMew01t1XMJXiIaO-243" style="edgeStyle=orthogonalEdgeStyle;rounded=0;orthogonalLoop=1;jettySize=auto;html=1;entryX=0;entryY=0;entryDx=0;entryDy=15;entryPerimeter=0;endArrow=none;endFill=0;" edge="1" parent="1" source="VJtvqMew01t1XMJXiIaO-241">
          <mxGeometry relative="1" as="geometry">
            <mxPoint x="1391.5" y="195.0000000000001" as="targetPoint" />
          </mxGeometry>
        </mxCell>
        <mxCell id="VJtvqMew01t1XMJXiIaO-254" style="edgeStyle=orthogonalEdgeStyle;rounded=0;orthogonalLoop=1;jettySize=auto;html=1;entryX=1;entryY=0.5;entryDx=0;entryDy=0;endArrow=none;endFill=0;" edge="1" parent="1" source="VJtvqMew01t1XMJXiIaO-244" target="VJtvqMew01t1XMJXiIaO-253">
          <mxGeometry relative="1" as="geometry" />
        </mxCell>
        <mxCell id="VJtvqMew01t1XMJXiIaO-244" value="" style="whiteSpace=wrap;html=1;aspect=fixed;" vertex="1" parent="1">
          <mxGeometry x="1300" y="185" width="20" height="20" as="geometry" />
        </mxCell>
        <mxCell id="VJtvqMew01t1XMJXiIaO-245" style="edgeStyle=orthogonalEdgeStyle;rounded=0;orthogonalLoop=1;jettySize=auto;html=1;entryX=1;entryY=0.5;entryDx=0;entryDy=0;entryPerimeter=0;endArrow=none;endFill=0;" edge="1" parent="1" source="VJtvqMew01t1XMJXiIaO-244" target="VJtvqMew01t1XMJXiIaO-241">
          <mxGeometry relative="1" as="geometry" />
        </mxCell>
        <mxCell id="VJtvqMew01t1XMJXiIaO-264" style="edgeStyle=orthogonalEdgeStyle;rounded=0;orthogonalLoop=1;jettySize=auto;html=1;entryX=1;entryY=0.5;entryDx=0;entryDy=0;endArrow=none;endFill=0;" edge="1" parent="1" source="VJtvqMew01t1XMJXiIaO-246" target="VJtvqMew01t1XMJXiIaO-263">
          <mxGeometry relative="1" as="geometry" />
        </mxCell>
        <mxCell id="VJtvqMew01t1XMJXiIaO-246" value="" style="whiteSpace=wrap;html=1;aspect=fixed;" vertex="1" parent="1">
          <mxGeometry x="1300" y="285" width="20" height="20" as="geometry" />
        </mxCell>
        <mxCell id="VJtvqMew01t1XMJXiIaO-268" style="edgeStyle=orthogonalEdgeStyle;rounded=0;orthogonalLoop=1;jettySize=auto;html=1;entryX=1;entryY=0.5;entryDx=0;entryDy=0;endArrow=none;endFill=0;curved=1;" edge="1" parent="1" source="VJtvqMew01t1XMJXiIaO-247" target="VJtvqMew01t1XMJXiIaO-267">
          <mxGeometry relative="1" as="geometry" />
        </mxCell>
        <mxCell id="VJtvqMew01t1XMJXiIaO-269" style="edgeStyle=orthogonalEdgeStyle;rounded=0;orthogonalLoop=1;jettySize=auto;html=1;entryX=1;entryY=0.5;entryDx=0;entryDy=0;endArrow=none;endFill=0;curved=1;" edge="1" parent="1" source="VJtvqMew01t1XMJXiIaO-247" target="VJtvqMew01t1XMJXiIaO-266">
          <mxGeometry relative="1" as="geometry" />
        </mxCell>
        <mxCell id="VJtvqMew01t1XMJXiIaO-247" value="" style="whiteSpace=wrap;html=1;aspect=fixed;" vertex="1" parent="1">
          <mxGeometry x="1300" y="396" width="20" height="20" as="geometry" />
        </mxCell>
        <mxCell id="VJtvqMew01t1XMJXiIaO-250" style="edgeStyle=orthogonalEdgeStyle;rounded=0;orthogonalLoop=1;jettySize=auto;html=1;entryX=1;entryY=0.5;entryDx=0;entryDy=0;entryPerimeter=0;endArrow=none;endFill=0;" edge="1" parent="1" source="VJtvqMew01t1XMJXiIaO-246" target="VJtvqMew01t1XMJXiIaO-240">
          <mxGeometry relative="1" as="geometry" />
        </mxCell>
        <mxCell id="VJtvqMew01t1XMJXiIaO-251" style="edgeStyle=orthogonalEdgeStyle;rounded=0;orthogonalLoop=1;jettySize=auto;html=1;entryX=1;entryY=0.5;entryDx=0;entryDy=0;entryPerimeter=0;endArrow=none;endFill=0;" edge="1" parent="1" source="VJtvqMew01t1XMJXiIaO-247" target="VJtvqMew01t1XMJXiIaO-237">
          <mxGeometry relative="1" as="geometry" />
        </mxCell>
        <mxCell id="VJtvqMew01t1XMJXiIaO-255" style="edgeStyle=orthogonalEdgeStyle;rounded=0;orthogonalLoop=1;jettySize=auto;html=1;entryX=1;entryY=0.5;entryDx=0;entryDy=0;endArrow=none;endFill=0;" edge="1" parent="1" source="VJtvqMew01t1XMJXiIaO-253" target="VJtvqMew01t1XMJXiIaO-45">
          <mxGeometry relative="1" as="geometry" />
        </mxCell>
        <mxCell id="VJtvqMew01t1XMJXiIaO-253" value="" style="ellipse;whiteSpace=wrap;html=1;aspect=fixed;" vertex="1" parent="1">
          <mxGeometry x="1240" y="187.5" width="15" height="15" as="geometry" />
        </mxCell>
        <mxCell id="VJtvqMew01t1XMJXiIaO-259" style="edgeStyle=orthogonalEdgeStyle;rounded=0;orthogonalLoop=1;jettySize=auto;html=1;entryX=1;entryY=0.5;entryDx=0;entryDy=0;endArrow=none;endFill=0;" edge="1" parent="1" source="VJtvqMew01t1XMJXiIaO-257" target="VJtvqMew01t1XMJXiIaO-29">
          <mxGeometry relative="1" as="geometry" />
        </mxCell>
        <mxCell id="VJtvqMew01t1XMJXiIaO-257" value="" style="shape=providedRequiredInterface;html=1;verticalLabelPosition=bottom;sketch=0;flipH=1;" vertex="1" parent="1">
          <mxGeometry x="1110" y="125" width="20" height="20" as="geometry" />
        </mxCell>
        <mxCell id="VJtvqMew01t1XMJXiIaO-258" style="edgeStyle=orthogonalEdgeStyle;rounded=0;orthogonalLoop=1;jettySize=auto;html=1;entryX=0;entryY=0.5;entryDx=0;entryDy=0;entryPerimeter=0;endArrow=none;endFill=0;" edge="1" parent="1" source="VJtvqMew01t1XMJXiIaO-45" target="VJtvqMew01t1XMJXiIaO-257">
          <mxGeometry relative="1" as="geometry" />
        </mxCell>
        <mxCell id="VJtvqMew01t1XMJXiIaO-265" style="edgeStyle=orthogonalEdgeStyle;rounded=0;orthogonalLoop=1;jettySize=auto;html=1;entryX=1;entryY=0.5;entryDx=0;entryDy=0;endArrow=none;endFill=0;" edge="1" parent="1" source="VJtvqMew01t1XMJXiIaO-263" target="VJtvqMew01t1XMJXiIaO-40">
          <mxGeometry relative="1" as="geometry" />
        </mxCell>
        <mxCell id="VJtvqMew01t1XMJXiIaO-263" value="" style="ellipse;whiteSpace=wrap;html=1;aspect=fixed;" vertex="1" parent="1">
          <mxGeometry x="1240" y="287.5" width="15" height="15" as="geometry" />
        </mxCell>
        <mxCell id="VJtvqMew01t1XMJXiIaO-271" style="rounded=0;orthogonalLoop=1;jettySize=auto;html=1;entryX=1;entryY=0.5;entryDx=0;entryDy=0;endArrow=none;endFill=0;" edge="1" parent="1" source="VJtvqMew01t1XMJXiIaO-266" target="VJtvqMew01t1XMJXiIaO-30">
          <mxGeometry relative="1" as="geometry" />
        </mxCell>
        <mxCell id="VJtvqMew01t1XMJXiIaO-266" value="" style="ellipse;whiteSpace=wrap;html=1;aspect=fixed;" vertex="1" parent="1">
          <mxGeometry x="1240" y="363.5" width="15" height="15" as="geometry" />
        </mxCell>
        <mxCell id="VJtvqMew01t1XMJXiIaO-270" style="edgeStyle=orthogonalEdgeStyle;rounded=0;orthogonalLoop=1;jettySize=auto;html=1;entryX=1;entryY=0.75;entryDx=0;entryDy=0;endArrow=none;endFill=0;" edge="1" parent="1" source="VJtvqMew01t1XMJXiIaO-267" target="VJtvqMew01t1XMJXiIaO-38">
          <mxGeometry relative="1" as="geometry" />
        </mxCell>
        <mxCell id="VJtvqMew01t1XMJXiIaO-267" value="" style="ellipse;whiteSpace=wrap;html=1;aspect=fixed;" vertex="1" parent="1">
          <mxGeometry x="1240" y="426" width="15" height="15" as="geometry" />
        </mxCell>
        <mxCell id="VJtvqMew01t1XMJXiIaO-302" style="edgeStyle=orthogonalEdgeStyle;rounded=0;orthogonalLoop=1;jettySize=auto;html=1;entryX=0;entryY=0.5;entryDx=0;entryDy=0;endArrow=none;endFill=0;entryPerimeter=0;" edge="1" parent="1" source="VJtvqMew01t1XMJXiIaO-276" target="VJtvqMew01t1XMJXiIaO-326">
          <mxGeometry relative="1" as="geometry">
            <mxPoint x="865.00000000001" y="125" as="targetPoint" />
          </mxGeometry>
        </mxCell>
        <mxCell id="VJtvqMew01t1XMJXiIaO-276" value="" style="whiteSpace=wrap;html=1;aspect=fixed;" vertex="1" parent="1">
          <mxGeometry x="890" y="115" width="20" height="20" as="geometry" />
        </mxCell>
        <mxCell id="VJtvqMew01t1XMJXiIaO-340" value="" style="edgeStyle=orthogonalEdgeStyle;rounded=0;orthogonalLoop=1;jettySize=auto;html=1;endArrow=none;endFill=0;" edge="1" parent="1" source="VJtvqMew01t1XMJXiIaO-277" target="VJtvqMew01t1XMJXiIaO-328">
          <mxGeometry relative="1" as="geometry" />
        </mxCell>
        <mxCell id="VJtvqMew01t1XMJXiIaO-277" value="" style="whiteSpace=wrap;html=1;aspect=fixed;" vertex="1" parent="1">
          <mxGeometry x="890" y="175" width="20" height="20" as="geometry" />
        </mxCell>
        <mxCell id="VJtvqMew01t1XMJXiIaO-281" style="edgeStyle=orthogonalEdgeStyle;rounded=0;orthogonalLoop=1;jettySize=auto;html=1;entryX=1;entryY=0.5;entryDx=0;entryDy=0;curved=1;endArrow=none;endFill=0;" edge="1" parent="1" source="VJtvqMew01t1XMJXiIaO-279" target="VJtvqMew01t1XMJXiIaO-277">
          <mxGeometry relative="1" as="geometry" />
        </mxCell>
        <mxCell id="VJtvqMew01t1XMJXiIaO-279" value="" style="shape=providedRequiredInterface;html=1;verticalLabelPosition=bottom;sketch=0;flipH=1;" vertex="1" parent="1">
          <mxGeometry x="1000" y="175" width="20" height="20" as="geometry" />
        </mxCell>
        <mxCell id="VJtvqMew01t1XMJXiIaO-280" style="rounded=0;orthogonalLoop=1;jettySize=auto;html=1;entryX=0;entryY=0;entryDx=0;entryDy=15;entryPerimeter=0;elbow=vertical;endArrow=none;endFill=0;edgeStyle=orthogonalEdgeStyle;curved=1;exitX=0;exitY=0.5;exitDx=0;exitDy=0;exitPerimeter=0;" edge="1" parent="1" source="VJtvqMew01t1XMJXiIaO-279" target="VJtvqMew01t1XMJXiIaO-45">
          <mxGeometry relative="1" as="geometry">
            <mxPoint x="1020" y="210" as="sourcePoint" />
          </mxGeometry>
        </mxCell>
        <mxCell id="VJtvqMew01t1XMJXiIaO-284" style="edgeStyle=orthogonalEdgeStyle;rounded=0;orthogonalLoop=1;jettySize=auto;html=1;entryX=1;entryY=0.5;entryDx=0;entryDy=0;curved=1;endArrow=none;endFill=0;" edge="1" parent="1" source="VJtvqMew01t1XMJXiIaO-282" target="VJtvqMew01t1XMJXiIaO-276">
          <mxGeometry relative="1" as="geometry" />
        </mxCell>
        <mxCell id="VJtvqMew01t1XMJXiIaO-282" value="" style="shape=providedRequiredInterface;html=1;verticalLabelPosition=bottom;sketch=0;flipH=1;" vertex="1" parent="1">
          <mxGeometry x="940" y="115" width="20" height="20" as="geometry" />
        </mxCell>
        <mxCell id="VJtvqMew01t1XMJXiIaO-283" style="rounded=0;orthogonalLoop=1;jettySize=auto;html=1;exitX=0;exitY=0;exitDx=0;exitDy=15;exitPerimeter=0;entryX=0;entryY=0.5;entryDx=0;entryDy=0;entryPerimeter=0;endArrow=none;endFill=0;" edge="1" parent="1" source="VJtvqMew01t1XMJXiIaO-29" target="VJtvqMew01t1XMJXiIaO-282">
          <mxGeometry relative="1" as="geometry" />
        </mxCell>
        <mxCell id="VJtvqMew01t1XMJXiIaO-336" value="" style="edgeStyle=orthogonalEdgeStyle;rounded=0;orthogonalLoop=1;jettySize=auto;html=1;endArrow=none;endFill=0;" edge="1" parent="1" source="VJtvqMew01t1XMJXiIaO-285" target="VJtvqMew01t1XMJXiIaO-330">
          <mxGeometry relative="1" as="geometry" />
        </mxCell>
        <mxCell id="VJtvqMew01t1XMJXiIaO-285" value="" style="whiteSpace=wrap;html=1;aspect=fixed;" vertex="1" parent="1">
          <mxGeometry x="890" y="351" width="20" height="20" as="geometry" />
        </mxCell>
        <mxCell id="VJtvqMew01t1XMJXiIaO-338" value="" style="edgeStyle=orthogonalEdgeStyle;rounded=0;orthogonalLoop=1;jettySize=auto;html=1;endArrow=none;endFill=0;" edge="1" parent="1" source="VJtvqMew01t1XMJXiIaO-286" target="VJtvqMew01t1XMJXiIaO-329">
          <mxGeometry relative="1" as="geometry" />
        </mxCell>
        <mxCell id="VJtvqMew01t1XMJXiIaO-286" value="" style="whiteSpace=wrap;html=1;aspect=fixed;" vertex="1" parent="1">
          <mxGeometry x="890" y="275" width="20" height="20" as="geometry" />
        </mxCell>
        <mxCell id="VJtvqMew01t1XMJXiIaO-334" value="" style="edgeStyle=orthogonalEdgeStyle;rounded=0;orthogonalLoop=1;jettySize=auto;html=1;endArrow=none;endFill=0;" edge="1" parent="1" source="VJtvqMew01t1XMJXiIaO-288" target="VJtvqMew01t1XMJXiIaO-333">
          <mxGeometry relative="1" as="geometry" />
        </mxCell>
        <mxCell id="VJtvqMew01t1XMJXiIaO-288" value="" style="whiteSpace=wrap;html=1;aspect=fixed;" vertex="1" parent="1">
          <mxGeometry x="890" y="401" width="20" height="20" as="geometry" />
        </mxCell>
        <mxCell id="VJtvqMew01t1XMJXiIaO-289" style="edgeStyle=orthogonalEdgeStyle;rounded=0;orthogonalLoop=1;jettySize=auto;html=1;curved=1;endArrow=none;endFill=0;entryX=1;entryY=0.5;entryDx=0;entryDy=0;" edge="1" parent="1" source="VJtvqMew01t1XMJXiIaO-290" target="VJtvqMew01t1XMJXiIaO-286">
          <mxGeometry relative="1" as="geometry">
            <mxPoint x="910" y="290" as="targetPoint" />
          </mxGeometry>
        </mxCell>
        <mxCell id="VJtvqMew01t1XMJXiIaO-290" value="" style="shape=providedRequiredInterface;html=1;verticalLabelPosition=bottom;sketch=0;flipH=1;" vertex="1" parent="1">
          <mxGeometry x="1000" y="275" width="20" height="20" as="geometry" />
        </mxCell>
        <mxCell id="VJtvqMew01t1XMJXiIaO-291" style="rounded=0;orthogonalLoop=1;jettySize=auto;html=1;entryX=0;entryY=0;entryDx=0;entryDy=15;entryPerimeter=0;elbow=vertical;endArrow=none;endFill=0;edgeStyle=orthogonalEdgeStyle;curved=1;exitX=0;exitY=0.5;exitDx=0;exitDy=0;exitPerimeter=0;" edge="1" parent="1" source="VJtvqMew01t1XMJXiIaO-290" target="VJtvqMew01t1XMJXiIaO-40">
          <mxGeometry relative="1" as="geometry">
            <mxPoint x="1020" y="310" as="sourcePoint" />
            <mxPoint x="1100" y="285" as="targetPoint" />
          </mxGeometry>
        </mxCell>
        <mxCell id="VJtvqMew01t1XMJXiIaO-296" style="edgeStyle=orthogonalEdgeStyle;rounded=0;orthogonalLoop=1;jettySize=auto;html=1;entryX=1;entryY=0.5;entryDx=0;entryDy=0;curved=1;endArrow=none;endFill=0;" edge="1" parent="1" source="VJtvqMew01t1XMJXiIaO-294" target="VJtvqMew01t1XMJXiIaO-288">
          <mxGeometry relative="1" as="geometry" />
        </mxCell>
        <mxCell id="VJtvqMew01t1XMJXiIaO-294" value="" style="shape=providedRequiredInterface;html=1;verticalLabelPosition=bottom;sketch=0;flipH=1;" vertex="1" parent="1">
          <mxGeometry x="940" y="401" width="20" height="20" as="geometry" />
        </mxCell>
        <mxCell id="VJtvqMew01t1XMJXiIaO-295" style="edgeStyle=orthogonalEdgeStyle;rounded=0;orthogonalLoop=1;jettySize=auto;html=1;entryX=0;entryY=0;entryDx=0;entryDy=15;entryPerimeter=0;curved=1;endArrow=none;endFill=0;" edge="1" parent="1" source="VJtvqMew01t1XMJXiIaO-294" target="VJtvqMew01t1XMJXiIaO-38">
          <mxGeometry relative="1" as="geometry" />
        </mxCell>
        <mxCell id="VJtvqMew01t1XMJXiIaO-299" style="edgeStyle=orthogonalEdgeStyle;rounded=0;orthogonalLoop=1;jettySize=auto;html=1;entryX=1;entryY=0.5;entryDx=0;entryDy=0;endArrow=none;endFill=0;" edge="1" parent="1" source="VJtvqMew01t1XMJXiIaO-297" target="VJtvqMew01t1XMJXiIaO-285">
          <mxGeometry relative="1" as="geometry" />
        </mxCell>
        <mxCell id="VJtvqMew01t1XMJXiIaO-297" value="" style="shape=providedRequiredInterface;html=1;verticalLabelPosition=bottom;sketch=0;flipH=1;" vertex="1" parent="1">
          <mxGeometry x="1000" y="351" width="20" height="20" as="geometry" />
        </mxCell>
        <mxCell id="VJtvqMew01t1XMJXiIaO-298" style="edgeStyle=orthogonalEdgeStyle;rounded=0;orthogonalLoop=1;jettySize=auto;html=1;entryX=0;entryY=0;entryDx=0;entryDy=15;entryPerimeter=0;endArrow=none;endFill=0;" edge="1" parent="1" source="VJtvqMew01t1XMJXiIaO-297" target="VJtvqMew01t1XMJXiIaO-30">
          <mxGeometry relative="1" as="geometry" />
        </mxCell>
        <mxCell id="VJtvqMew01t1XMJXiIaO-316" value="" style="whiteSpace=wrap;html=1;aspect=fixed;" vertex="1" parent="1">
          <mxGeometry x="810" y="115" width="20" height="20" as="geometry" />
        </mxCell>
        <mxCell id="VJtvqMew01t1XMJXiIaO-355" style="edgeStyle=orthogonalEdgeStyle;rounded=0;orthogonalLoop=1;jettySize=auto;html=1;entryX=1;entryY=0.5;entryDx=0;entryDy=0;endArrow=none;endFill=0;" edge="1" parent="1" source="VJtvqMew01t1XMJXiIaO-317" target="VJtvqMew01t1XMJXiIaO-348">
          <mxGeometry relative="1" as="geometry" />
        </mxCell>
        <mxCell id="VJtvqMew01t1XMJXiIaO-317" value="" style="whiteSpace=wrap;html=1;aspect=fixed;" vertex="1" parent="1">
          <mxGeometry x="810" y="175" width="20" height="20" as="geometry" />
        </mxCell>
        <mxCell id="VJtvqMew01t1XMJXiIaO-354" style="edgeStyle=orthogonalEdgeStyle;rounded=0;orthogonalLoop=1;jettySize=auto;html=1;entryX=1;entryY=0.5;entryDx=0;entryDy=0;endArrow=none;endFill=0;" edge="1" parent="1" source="VJtvqMew01t1XMJXiIaO-318" target="VJtvqMew01t1XMJXiIaO-349">
          <mxGeometry relative="1" as="geometry" />
        </mxCell>
        <mxCell id="VJtvqMew01t1XMJXiIaO-318" value="" style="whiteSpace=wrap;html=1;aspect=fixed;" vertex="1" parent="1">
          <mxGeometry x="810" y="275" width="20" height="20" as="geometry" />
        </mxCell>
        <mxCell id="VJtvqMew01t1XMJXiIaO-353" style="edgeStyle=orthogonalEdgeStyle;rounded=0;orthogonalLoop=1;jettySize=auto;html=1;entryX=1;entryY=0.5;entryDx=0;entryDy=0;endArrow=none;endFill=0;curved=1;" edge="1" parent="1" source="VJtvqMew01t1XMJXiIaO-319" target="VJtvqMew01t1XMJXiIaO-350">
          <mxGeometry relative="1" as="geometry" />
        </mxCell>
        <mxCell id="VJtvqMew01t1XMJXiIaO-319" value="" style="whiteSpace=wrap;html=1;aspect=fixed;" vertex="1" parent="1">
          <mxGeometry x="810" y="351" width="20" height="20" as="geometry" />
        </mxCell>
        <mxCell id="VJtvqMew01t1XMJXiIaO-352" style="edgeStyle=orthogonalEdgeStyle;rounded=0;orthogonalLoop=1;jettySize=auto;html=1;entryX=1;entryY=0.5;entryDx=0;entryDy=0;endArrow=none;endFill=0;curved=1;" edge="1" parent="1" source="VJtvqMew01t1XMJXiIaO-320" target="VJtvqMew01t1XMJXiIaO-351">
          <mxGeometry relative="1" as="geometry" />
        </mxCell>
        <mxCell id="VJtvqMew01t1XMJXiIaO-320" value="" style="whiteSpace=wrap;html=1;aspect=fixed;" vertex="1" parent="1">
          <mxGeometry x="810" y="401" width="20" height="20" as="geometry" />
        </mxCell>
        <mxCell id="VJtvqMew01t1XMJXiIaO-342" value="" style="edgeStyle=orthogonalEdgeStyle;rounded=0;orthogonalLoop=1;jettySize=auto;html=1;endArrow=none;endFill=0;" edge="1" parent="1" source="VJtvqMew01t1XMJXiIaO-326" target="VJtvqMew01t1XMJXiIaO-316">
          <mxGeometry relative="1" as="geometry" />
        </mxCell>
        <mxCell id="VJtvqMew01t1XMJXiIaO-326" value="" style="shape=providedRequiredInterface;html=1;verticalLabelPosition=bottom;sketch=0;flipH=1;" vertex="1" parent="1">
          <mxGeometry x="850" y="115" width="20" height="20" as="geometry" />
        </mxCell>
        <mxCell id="VJtvqMew01t1XMJXiIaO-341" value="" style="edgeStyle=orthogonalEdgeStyle;rounded=0;orthogonalLoop=1;jettySize=auto;html=1;endArrow=none;endFill=0;" edge="1" parent="1" source="VJtvqMew01t1XMJXiIaO-328" target="VJtvqMew01t1XMJXiIaO-317">
          <mxGeometry relative="1" as="geometry" />
        </mxCell>
        <mxCell id="VJtvqMew01t1XMJXiIaO-328" value="" style="shape=providedRequiredInterface;html=1;verticalLabelPosition=bottom;sketch=0;flipH=1;" vertex="1" parent="1">
          <mxGeometry x="850" y="175" width="20" height="20" as="geometry" />
        </mxCell>
        <mxCell id="VJtvqMew01t1XMJXiIaO-339" value="" style="edgeStyle=orthogonalEdgeStyle;rounded=0;orthogonalLoop=1;jettySize=auto;html=1;endArrow=none;endFill=0;" edge="1" parent="1" source="VJtvqMew01t1XMJXiIaO-329" target="VJtvqMew01t1XMJXiIaO-318">
          <mxGeometry relative="1" as="geometry" />
        </mxCell>
        <mxCell id="VJtvqMew01t1XMJXiIaO-329" value="" style="shape=providedRequiredInterface;html=1;verticalLabelPosition=bottom;sketch=0;flipH=1;" vertex="1" parent="1">
          <mxGeometry x="850" y="275" width="20" height="20" as="geometry" />
        </mxCell>
        <mxCell id="VJtvqMew01t1XMJXiIaO-337" value="" style="edgeStyle=orthogonalEdgeStyle;rounded=0;orthogonalLoop=1;jettySize=auto;html=1;endArrow=none;endFill=0;" edge="1" parent="1" source="VJtvqMew01t1XMJXiIaO-330" target="VJtvqMew01t1XMJXiIaO-319">
          <mxGeometry relative="1" as="geometry" />
        </mxCell>
        <mxCell id="VJtvqMew01t1XMJXiIaO-330" value="" style="shape=providedRequiredInterface;html=1;verticalLabelPosition=bottom;sketch=0;flipH=1;" vertex="1" parent="1">
          <mxGeometry x="850" y="351" width="20" height="20" as="geometry" />
        </mxCell>
        <mxCell id="VJtvqMew01t1XMJXiIaO-335" value="" style="edgeStyle=orthogonalEdgeStyle;rounded=0;orthogonalLoop=1;jettySize=auto;html=1;endArrow=none;endFill=0;" edge="1" parent="1" source="VJtvqMew01t1XMJXiIaO-333" target="VJtvqMew01t1XMJXiIaO-320">
          <mxGeometry relative="1" as="geometry" />
        </mxCell>
        <mxCell id="VJtvqMew01t1XMJXiIaO-333" value="" style="shape=providedRequiredInterface;html=1;verticalLabelPosition=bottom;sketch=0;flipH=1;" vertex="1" parent="1">
          <mxGeometry x="850" y="401" width="20" height="20" as="geometry" />
        </mxCell>
        <mxCell id="VJtvqMew01t1XMJXiIaO-356" style="edgeStyle=orthogonalEdgeStyle;rounded=0;orthogonalLoop=1;jettySize=auto;html=1;entryX=1;entryY=0.5;entryDx=0;entryDy=0;exitX=0;exitY=0.5;exitDx=0;exitDy=0;endArrow=none;endFill=0;" edge="1" parent="1" source="VJtvqMew01t1XMJXiIaO-346" target="VJtvqMew01t1XMJXiIaO-15">
          <mxGeometry relative="1" as="geometry" />
        </mxCell>
        <mxCell id="VJtvqMew01t1XMJXiIaO-346" value="" style="ellipse;whiteSpace=wrap;html=1;aspect=fixed;" vertex="1" parent="1">
          <mxGeometry x="750" y="117.5" width="15" height="15" as="geometry" />
        </mxCell>
        <mxCell id="VJtvqMew01t1XMJXiIaO-347" style="edgeStyle=orthogonalEdgeStyle;rounded=0;orthogonalLoop=1;jettySize=auto;html=1;entryX=1;entryY=0.5;entryDx=0;entryDy=0;endArrow=none;endFill=0;" edge="1" parent="1" source="VJtvqMew01t1XMJXiIaO-316" target="VJtvqMew01t1XMJXiIaO-346">
          <mxGeometry relative="1" as="geometry" />
        </mxCell>
        <mxCell id="VJtvqMew01t1XMJXiIaO-361" style="edgeStyle=orthogonalEdgeStyle;rounded=0;orthogonalLoop=1;jettySize=auto;html=1;entryX=1;entryY=0.5;entryDx=0;entryDy=0;endArrow=none;endFill=0;curved=1;" edge="1" parent="1" source="VJtvqMew01t1XMJXiIaO-348" target="VJtvqMew01t1XMJXiIaO-23">
          <mxGeometry relative="1" as="geometry" />
        </mxCell>
        <mxCell id="VJtvqMew01t1XMJXiIaO-362" style="edgeStyle=orthogonalEdgeStyle;rounded=0;orthogonalLoop=1;jettySize=auto;html=1;entryX=1;entryY=0.5;entryDx=0;entryDy=0;endArrow=none;endFill=0;curved=1;" edge="1" parent="1" source="VJtvqMew01t1XMJXiIaO-348" target="VJtvqMew01t1XMJXiIaO-21">
          <mxGeometry relative="1" as="geometry" />
        </mxCell>
        <mxCell id="VJtvqMew01t1XMJXiIaO-348" value="" style="ellipse;whiteSpace=wrap;html=1;aspect=fixed;" vertex="1" parent="1">
          <mxGeometry x="750" y="177.5" width="15" height="15" as="geometry" />
        </mxCell>
        <mxCell id="VJtvqMew01t1XMJXiIaO-363" style="edgeStyle=orthogonalEdgeStyle;rounded=0;orthogonalLoop=1;jettySize=auto;html=1;entryX=1;entryY=0.5;entryDx=0;entryDy=0;endArrow=none;endFill=0;curved=1;" edge="1" parent="1" source="VJtvqMew01t1XMJXiIaO-349" target="VJtvqMew01t1XMJXiIaO-22">
          <mxGeometry relative="1" as="geometry" />
        </mxCell>
        <mxCell id="VJtvqMew01t1XMJXiIaO-349" value="" style="ellipse;whiteSpace=wrap;html=1;aspect=fixed;" vertex="1" parent="1">
          <mxGeometry x="750" y="277.5" width="15" height="15" as="geometry" />
        </mxCell>
        <mxCell id="VJtvqMew01t1XMJXiIaO-364" style="edgeStyle=orthogonalEdgeStyle;rounded=0;orthogonalLoop=1;jettySize=auto;html=1;entryX=1;entryY=0.5;entryDx=0;entryDy=0;endArrow=none;endFill=0;" edge="1" parent="1" source="VJtvqMew01t1XMJXiIaO-350" target="VJtvqMew01t1XMJXiIaO-16">
          <mxGeometry relative="1" as="geometry" />
        </mxCell>
        <mxCell id="VJtvqMew01t1XMJXiIaO-350" value="" style="ellipse;whiteSpace=wrap;html=1;aspect=fixed;" vertex="1" parent="1">
          <mxGeometry x="750" y="391" width="15" height="15" as="geometry" />
        </mxCell>
        <mxCell id="VJtvqMew01t1XMJXiIaO-371" style="edgeStyle=orthogonalEdgeStyle;rounded=0;orthogonalLoop=1;jettySize=auto;html=1;endArrow=none;endFill=0;" edge="1" parent="1" source="VJtvqMew01t1XMJXiIaO-351" target="VJtvqMew01t1XMJXiIaO-20">
          <mxGeometry relative="1" as="geometry" />
        </mxCell>
        <mxCell id="VJtvqMew01t1XMJXiIaO-417" style="edgeStyle=orthogonalEdgeStyle;rounded=0;orthogonalLoop=1;jettySize=auto;html=1;entryX=1;entryY=0.5;entryDx=0;entryDy=0;curved=1;endArrow=none;endFill=0;" edge="1" parent="1" source="VJtvqMew01t1XMJXiIaO-351" target="VJtvqMew01t1XMJXiIaO-17">
          <mxGeometry relative="1" as="geometry">
            <Array as="points">
              <mxPoint x="580" y="474" />
              <mxPoint x="580" y="240" />
            </Array>
          </mxGeometry>
        </mxCell>
        <mxCell id="VJtvqMew01t1XMJXiIaO-418" style="edgeStyle=orthogonalEdgeStyle;rounded=0;orthogonalLoop=1;jettySize=auto;html=1;entryX=1;entryY=0.5;entryDx=0;entryDy=0;curved=1;endArrow=none;endFill=0;" edge="1" parent="1" source="VJtvqMew01t1XMJXiIaO-351" target="VJtvqMew01t1XMJXiIaO-18">
          <mxGeometry relative="1" as="geometry">
            <Array as="points">
              <mxPoint x="570" y="474" />
              <mxPoint x="570" y="390" />
            </Array>
          </mxGeometry>
        </mxCell>
        <mxCell id="VJtvqMew01t1XMJXiIaO-351" value="" style="ellipse;whiteSpace=wrap;html=1;aspect=fixed;" vertex="1" parent="1">
          <mxGeometry x="750" y="466" width="15" height="15" as="geometry" />
        </mxCell>
        <mxCell id="VJtvqMew01t1XMJXiIaO-382" style="edgeStyle=orthogonalEdgeStyle;rounded=0;orthogonalLoop=1;jettySize=auto;html=1;entryX=0.5;entryY=0;entryDx=0;entryDy=0;endArrow=none;endFill=0;" edge="1" parent="1" source="VJtvqMew01t1XMJXiIaO-373" target="VJtvqMew01t1XMJXiIaO-381">
          <mxGeometry relative="1" as="geometry" />
        </mxCell>
        <mxCell id="VJtvqMew01t1XMJXiIaO-373" value="" style="ellipse;whiteSpace=wrap;html=1;aspect=fixed;" vertex="1" parent="1">
          <mxGeometry x="355.5" y="466" width="15" height="15" as="geometry" />
        </mxCell>
        <mxCell id="VJtvqMew01t1XMJXiIaO-385" style="edgeStyle=orthogonalEdgeStyle;rounded=0;orthogonalLoop=1;jettySize=auto;html=1;endArrow=halfCircle;endFill=0;" edge="1" parent="1" source="VJtvqMew01t1XMJXiIaO-381">
          <mxGeometry relative="1" as="geometry">
            <mxPoint x="363" y="560" as="targetPoint" />
          </mxGeometry>
        </mxCell>
        <mxCell id="VJtvqMew01t1XMJXiIaO-439" value="시스템 자원 현황" style="edgeLabel;html=1;align=center;verticalAlign=middle;resizable=0;points=[];fontStyle=1" vertex="1" connectable="0" parent="VJtvqMew01t1XMJXiIaO-385">
          <mxGeometry x="0.4465" relative="1" as="geometry">
            <mxPoint y="19" as="offset" />
          </mxGeometry>
        </mxCell>
        <mxCell id="VJtvqMew01t1XMJXiIaO-381" value="" style="whiteSpace=wrap;html=1;aspect=fixed;" vertex="1" parent="1">
          <mxGeometry x="353" y="510" width="20" height="20" as="geometry" />
        </mxCell>
        <mxCell id="VJtvqMew01t1XMJXiIaO-387" style="edgeStyle=orthogonalEdgeStyle;rounded=0;orthogonalLoop=1;jettySize=auto;html=1;entryX=0.494;entryY=0.992;entryDx=0;entryDy=0;entryPerimeter=0;endArrow=none;endFill=0;" edge="1" parent="1" source="VJtvqMew01t1XMJXiIaO-373" target="VJtvqMew01t1XMJXiIaO-24">
          <mxGeometry relative="1" as="geometry" />
        </mxCell>
        <mxCell id="VJtvqMew01t1XMJXiIaO-396" value="레스토랑 선택" style="edgeStyle=orthogonalEdgeStyle;rounded=0;orthogonalLoop=1;jettySize=auto;html=1;endArrow=halfCircle;endFill=0;fontStyle=1" edge="1" parent="1" source="VJtvqMew01t1XMJXiIaO-394">
          <mxGeometry x="0.9811" y="15" relative="1" as="geometry">
            <mxPoint x="250" y="159.5" as="targetPoint" />
            <mxPoint as="offset" />
          </mxGeometry>
        </mxCell>
        <mxCell id="VJtvqMew01t1XMJXiIaO-394" value="" style="whiteSpace=wrap;html=1;aspect=fixed;" vertex="1" parent="1">
          <mxGeometry x="290" y="149.5" width="20" height="20" as="geometry" />
        </mxCell>
        <mxCell id="VJtvqMew01t1XMJXiIaO-422" style="edgeStyle=orthogonalEdgeStyle;rounded=0;orthogonalLoop=1;jettySize=auto;html=1;entryX=0;entryY=0.5;entryDx=0;entryDy=0;endArrow=none;endFill=0;" edge="1" parent="1" source="VJtvqMew01t1XMJXiIaO-394" target="VJtvqMew01t1XMJXiIaO-436">
          <mxGeometry relative="1" as="geometry">
            <mxPoint x="380" y="160.00000000000006" as="targetPoint" />
          </mxGeometry>
        </mxCell>
        <mxCell id="VJtvqMew01t1XMJXiIaO-424" value="" style="whiteSpace=wrap;html=1;aspect=fixed;" vertex="1" parent="1">
          <mxGeometry x="290" y="105" width="20" height="20" as="geometry" />
        </mxCell>
        <mxCell id="VJtvqMew01t1XMJXiIaO-426" style="edgeStyle=orthogonalEdgeStyle;rounded=0;orthogonalLoop=1;jettySize=auto;html=1;endArrow=halfCircle;endFill=0;exitX=0;exitY=0.5;exitDx=0;exitDy=0;" edge="1" parent="1">
          <mxGeometry relative="1" as="geometry">
            <mxPoint x="250" y="114.5" as="targetPoint" />
            <mxPoint x="290" y="114" as="sourcePoint" />
          </mxGeometry>
        </mxCell>
        <mxCell id="VJtvqMew01t1XMJXiIaO-433" value="검색어" style="edgeLabel;html=1;align=center;verticalAlign=middle;resizable=0;points=[];fontStyle=1" vertex="1" connectable="0" parent="VJtvqMew01t1XMJXiIaO-426">
          <mxGeometry x="0.6288" y="-2" relative="1" as="geometry">
            <mxPoint x="-7" y="20" as="offset" />
          </mxGeometry>
        </mxCell>
        <mxCell id="VJtvqMew01t1XMJXiIaO-429" style="edgeStyle=orthogonalEdgeStyle;rounded=0;orthogonalLoop=1;jettySize=auto;html=1;entryX=0;entryY=0.5;entryDx=0;entryDy=0;endArrow=none;endFill=0;" edge="1" parent="1" source="VJtvqMew01t1XMJXiIaO-424" target="VJtvqMew01t1XMJXiIaO-435">
          <mxGeometry relative="1" as="geometry">
            <mxPoint x="380" y="115.00000000000006" as="targetPoint" />
          </mxGeometry>
        </mxCell>
        <mxCell id="VJtvqMew01t1XMJXiIaO-430" style="edgeStyle=orthogonalEdgeStyle;rounded=0;orthogonalLoop=1;jettySize=auto;html=1;entryX=0;entryY=0;entryDx=0;entryDy=15;entryPerimeter=0;curved=1;endArrow=none;endFill=0;exitX=1;exitY=0.5;exitDx=0;exitDy=0;" edge="1" parent="1" source="VJtvqMew01t1XMJXiIaO-435" target="VJtvqMew01t1XMJXiIaO-23">
          <mxGeometry relative="1" as="geometry">
            <mxPoint x="400" y="114.99999999999994" as="sourcePoint" />
            <Array as="points">
              <mxPoint x="530" y="115" />
              <mxPoint x="530" y="175" />
            </Array>
          </mxGeometry>
        </mxCell>
        <mxCell id="VJtvqMew01t1XMJXiIaO-434" style="edgeStyle=orthogonalEdgeStyle;rounded=0;orthogonalLoop=1;jettySize=auto;html=1;entryX=0;entryY=0;entryDx=0;entryDy=15;entryPerimeter=0;curved=1;endArrow=none;endFill=0;exitX=1;exitY=0.5;exitDx=0;exitDy=0;" edge="1" parent="1" source="VJtvqMew01t1XMJXiIaO-436" target="VJtvqMew01t1XMJXiIaO-21">
          <mxGeometry relative="1" as="geometry">
            <mxPoint x="410" y="160" as="sourcePoint" />
            <Array as="points">
              <mxPoint x="530" y="160" />
              <mxPoint x="530" y="235" />
            </Array>
          </mxGeometry>
        </mxCell>
        <mxCell id="VJtvqMew01t1XMJXiIaO-435" value="" style="ellipse;whiteSpace=wrap;html=1;aspect=fixed;" vertex="1" parent="1">
          <mxGeometry x="373" y="107.5" width="15" height="15" as="geometry" />
        </mxCell>
        <mxCell id="VJtvqMew01t1XMJXiIaO-436" value="" style="ellipse;whiteSpace=wrap;html=1;aspect=fixed;" vertex="1" parent="1">
          <mxGeometry x="373" y="152" width="15" height="15" as="geometry" />
        </mxCell>
      </root>
    </mxGraphModel>
  </diagram>
</mxfile>
